# xmcd CD database file
#
# Track frame offsets:
#	150
#	12498
#	28576
#	43778
#	57710
#	70145
#	86959
#	98449
#	109056
#	117342
#	134912
#	149851
#
# Disc length: 2210 seconds
#
# Revision: 0
# Processed by: cddbd v1.5.2PL0 Copyright (c) Steve Scherf et al.
# Submitted via: CDex 1.51
#
DISCID=bb08a00c
DTITLE=Christy McWilson and The Granvilles - Martini's Mansion
DYEAR=2009
DGENRE=Country
TTITLE0=Better Days
TTITLE1=Mama, I Tried
TTITLE2=When the World Was Mine
TTITLE3=Sometimes the Good Guys Win
TTITLE4=George Bailey
TTITLE5=The Hair of The Dog (Is a Man's Best Friend)
TTITLE6=Deuces Wild
TTITLE7=Papa Gene's Blues
TTITLE8=All Children Should Be Girls
TTITLE9=Desperate Girl
TTITLE10=Sliver
TTITLE11=He Loves You
EXTD=YEAR: 2009
EXTT0=
EXTT1=
EXTT2=
EXTT3=
EXTT4=
EXTT5=
EXTT6=
EXTT7=
EXTT8=
EXTT9=
EXTT10=
EXTT11=
PLAYORDER=
